<svg width="385" height="49" viewBox="0 0 385 49" fill="none" xmlns="http://www.w3.org/2000/svg">
<path d="M64.781 3.86397e-08H47.646L51.781 5.85001L64.273 9.678C65.3727 10.0266 66.3319 10.7179 67.0105 11.6509C67.689 12.5838 68.0512 13.7094 68.044 14.863L68.045 14.878V33.6C68.0521 34.7537 67.6898 35.8794 67.0111 36.8124C66.3324 37.7453 65.3729 38.4366 64.273 38.785L51.781 42.612L47.647 48.462H64.782C68.2138 48.4617 71.505 47.0983 73.9317 44.6717C76.3583 42.245 77.7217 38.9538 77.722 35.522V12.941C77.722 9.50901 76.3587 6.21757 73.932 3.79069C71.5053 1.36381 68.213 0.000265242 64.781 3.86397e-08ZM12.941 3.86397e-08H30.074L25.939 5.85001L13.448 9.678C12.3481 10.0264 11.3886 10.7177 10.7099 11.6506C10.0312 12.5836 9.66889 13.7093 9.676 14.863V33.6C9.66889 34.7537 10.0312 35.8794 10.7099 36.8124C11.3886 37.7453 12.3481 38.4366 13.448 38.785L25.939 42.612L30.074 48.462H12.942C11.2426 48.4621 9.55974 48.1275 7.98962 47.4773C6.41949 46.8271 4.99281 45.874 3.79104 44.6724C2.58926 43.4708 1.63592 42.0443 0.985457 40.4742C0.33499 38.9042 0.000131317 37.2214 0 35.522V12.941C-5.07412e-09 11.2415 0.334762 9.5586 0.98517 7.98846C1.63558 6.41832 2.5889 4.99167 3.79068 3.78998C4.99247 2.58828 6.4192 1.63508 7.98939 0.984795C9.55958 0.334507 11.2415 -0.00013129 12.941 3.86397e-08ZM287.512 33.839C287.489 35.8592 286.67 37.7889 285.233 39.2093C283.797 40.6298 281.858 41.4264 279.838 41.4264C277.817 41.4264 275.878 40.6298 274.442 39.2093C273.005 37.7889 272.186 35.8592 272.163 33.839V15.312C272.163 13.2765 272.972 11.3243 274.411 9.88496C275.85 8.44561 277.802 7.637 279.838 7.637C281.874 7.637 283.826 8.44561 285.265 9.88496C286.704 11.3243 287.513 13.2765 287.513 15.312V15.539H293.386V15.312C293.343 11.7476 291.896 8.34393 289.361 5.83871C286.825 3.33348 283.404 1.92861 279.839 1.92861C276.274 1.92861 272.853 3.33348 270.318 5.83871C267.782 8.34393 266.335 11.7476 266.292 15.312V33.822C266.343 37.3799 267.791 40.7751 270.324 43.274C272.857 45.7728 276.272 47.1748 279.83 47.1771C283.388 47.1793 286.805 45.7816 289.341 43.2859C291.877 40.7902 293.33 37.3968 293.385 33.839L293.386 33.594H287.512V33.839ZM318.035 13.889C315.054 13.8728 312.181 15.0051 310.013 17.051C307.845 19.0969 306.548 21.8991 306.391 24.876V36.226C306.562 39.1988 307.864 41.9935 310.03 44.0372C312.196 46.0808 315.061 47.2185 318.039 47.2171C321.017 47.2157 323.881 46.0753 326.045 44.0296C328.209 41.9839 329.509 39.188 329.677 36.215V24.862C329.518 21.8871 328.22 19.0876 326.052 17.0443C323.885 15.0011 321.014 13.8712 318.035 13.889ZM323.792 35.565C323.792 36.3211 323.644 37.0698 323.354 37.7685C323.065 38.4671 322.642 39.1019 322.107 39.6367C321.573 40.1716 320.938 40.5959 320.24 40.8855C319.541 41.1751 318.793 41.3242 318.036 41.3245C317.28 41.3248 316.532 41.1761 315.833 40.887C315.134 40.5979 314.5 40.174 313.965 39.6396C313.43 39.1051 313.006 38.4706 312.716 37.7722C312.426 37.0737 312.277 36.3251 312.277 35.569V25.539C312.277 24.012 312.884 22.5476 313.963 21.4678C315.043 20.3881 316.508 19.7815 318.034 19.7815C319.561 19.7815 321.026 20.3881 322.106 21.4678C323.185 22.5476 323.792 24.012 323.792 25.539V35.565ZM296.309 1.92001H302.164V46.48H296.309V1.92001ZM134.939 13.89H140.794V46.48H134.939V13.89ZM123.238 1.92001H129.093V46.48H123.238V1.92001ZM108.468 1.92001H101.262L89.428 46.422L89.412 46.48H95.259L98.402 34.657L111.338 34.697L114.464 46.446L114.472 46.48H120.318L108.478 1.954L108.468 1.92001ZM109.786 28.859H99.944L104.865 10.354L109.786 28.859ZM351.311 36.179C351.311 37.7102 350.703 39.1787 349.62 40.2615C348.537 41.3442 347.069 41.9525 345.537 41.9525C344.006 41.9525 342.538 41.3442 341.455 40.2615C340.372 39.1787 339.764 37.7102 339.764 36.179V13.889H333.908V37.134C333.909 38.7141 334.282 40.2718 334.996 41.6815C335.709 43.0912 336.744 44.3135 338.017 45.2498C339.29 46.1862 340.765 46.8104 342.323 47.0722C343.881 47.334 345.479 47.226 346.988 46.757C347.548 46.5913 348.089 46.3667 348.602 46.087C349.495 45.6267 350.315 45.0355 351.033 44.333L351.286 44.088V46.48H357.191V13.89H351.311V36.179ZM134.939 1.92001H140.794V7.777H134.939V1.92001ZM159.797 13.862C157.16 13.8578 154.627 14.8929 152.748 16.743L152.497 16.988V1.925H146.64V46.485H152.497V44.091L152.748 44.336C154.165 45.725 155.961 46.6646 157.911 47.0368C159.86 47.4091 161.876 47.1975 163.706 46.4285C165.535 45.6595 167.097 44.3674 168.195 42.7143C169.293 41.0611 169.879 39.1206 169.878 37.136V23.943C169.875 21.2705 168.811 18.7085 166.921 16.8188C165.032 14.9292 162.469 13.8652 159.797 13.862ZM164.097 25.014V36.066C164.097 37.6013 163.487 39.0738 162.401 40.1594C161.316 41.2451 159.843 41.855 158.308 41.855C156.773 41.855 155.3 41.2451 154.215 40.1594C153.129 39.0738 152.519 37.6013 152.519 36.066V25.014C152.519 23.4787 153.129 22.0062 154.215 20.9206C155.3 19.8349 156.773 19.225 158.308 19.225C159.843 19.225 161.316 19.8349 162.401 20.9206C163.487 22.0062 164.097 23.4787 164.097 25.014ZM214.33 13.858C211.693 13.8534 209.161 14.8882 207.282 16.738L207.03 16.983V1.922H201.173V46.482H207.03V44.088L207.282 44.334C208.699 45.7235 210.495 46.6635 212.445 47.036C214.394 47.4085 216.411 47.197 218.24 46.4279C220.07 45.6589 221.632 44.3665 222.73 42.7131C223.828 41.0597 224.413 39.1188 224.412 37.134V23.941C224.409 21.2683 223.345 18.7061 221.455 16.8165C219.565 14.9268 217.003 13.8639 214.33 13.861V13.858ZM218.63 25.009V36.061C218.63 37.5962 218.02 39.0685 216.935 40.1541C215.849 41.2397 214.377 41.8495 212.842 41.8495C211.306 41.8495 209.834 41.2397 208.748 40.1541C207.663 39.0685 207.053 37.5962 207.053 36.061V25.009C207.053 23.4739 207.663 22.0017 208.748 20.9163C209.834 19.8308 211.306 19.221 212.841 19.221C214.376 19.221 215.848 19.8308 216.934 20.9163C218.019 22.0017 218.629 23.4739 218.629 25.009H218.63ZM378.808 1.92001V16.983L378.557 16.738C377.14 15.349 375.344 14.4094 373.394 14.0372C371.445 13.6649 369.429 13.8766 367.599 14.6455C365.77 15.4145 364.208 16.7066 363.11 18.3597C362.012 20.0129 361.426 21.9534 361.427 23.938L361.43 37.138L361.423 37.171C361.431 39.1525 362.022 41.0877 363.124 42.7348C364.225 44.3819 365.788 45.6679 367.616 46.432C369.444 47.196 371.457 47.4044 373.403 47.0309C375.349 46.6574 377.142 45.7186 378.557 44.332L378.808 44.087V46.48H384.667V1.92001H378.808ZM378.785 25.01V36.06C378.785 37.5952 378.175 39.0675 377.09 40.1531C376.004 41.2386 374.532 41.8485 372.997 41.8485C371.461 41.8485 369.989 41.2386 368.903 40.1531C367.818 39.0675 367.208 37.5952 367.208 36.06V25.01C367.208 23.4748 367.818 22.0025 368.903 20.9169C369.989 19.8314 371.461 19.2215 372.997 19.2215C374.532 19.2215 376.004 19.8314 377.09 20.9169C378.175 22.0025 378.785 23.4748 378.785 25.01ZM196.973 24.916C196.953 24.5349 196.914 24.1551 196.855 23.778L196.825 23.614C196.533 21.8577 195.847 20.1902 194.82 18.736C193.831 17.3246 192.535 16.155 191.031 15.3146C189.526 14.4742 187.851 13.9848 186.13 13.883C185.904 13.8709 185.677 13.8632 185.45 13.86C182.723 13.8533 180.08 14.8029 177.982 16.5437C175.883 18.2844 174.461 20.706 173.963 23.387L173.953 23.442H179.687L179.693 23.405C179.968 22.0206 180.74 20.785 181.865 19.9323C182.99 19.0796 184.388 18.6689 185.795 18.7781C187.202 18.8873 188.52 19.5088 189.5 20.5248C190.479 21.5408 191.052 22.8808 191.11 24.291L191.117 27.027H182.807C180.356 27.0254 177.989 27.9175 176.148 29.5362C174.308 31.1549 173.121 33.3891 172.81 35.8203C172.499 38.2514 173.085 40.7125 174.458 42.7426C175.831 44.7727 177.898 46.2323 180.27 46.848L180.418 46.887C180.833 46.9907 181.253 47.0675 181.678 47.117L181.825 47.135C182.33 47.1901 182.837 47.2175 183.345 47.217C184.538 47.24 185.726 47.0677 186.863 46.707C188.367 46.2309 189.737 45.4077 190.864 44.304L191.116 44.058V46.451H196.973V42.555V24.916ZM183.897 31.471H191.036V35.59C191.029 37.1068 190.496 38.5742 189.526 39.7411C188.557 40.908 187.213 41.7019 185.723 41.987C185.296 42.0851 184.859 42.1354 184.42 42.137C183.376 42.1305 182.353 41.8431 181.458 41.305C181.195 41.1671 180.945 41.0065 180.71 40.825C180.373 40.5626 180.069 40.2608 179.804 39.926L179.743 39.848C179.046 38.9468 178.667 37.8402 178.665 36.701C178.667 35.3141 179.219 33.9847 180.2 33.0042C181.18 32.0237 182.51 31.4723 183.897 31.471ZM251.579 24.945C251.559 24.5639 251.52 24.1841 251.461 23.807L251.43 23.644C251.138 21.8878 250.453 20.2203 249.426 18.766C248.437 17.3544 247.142 16.1846 245.637 15.3441C244.132 14.5035 242.457 14.014 240.736 13.912C240.51 13.9002 240.283 13.8929 240.056 13.89C237.329 13.883 234.686 14.8326 232.587 16.5733C230.488 18.3141 229.066 20.7358 228.568 23.417L228.558 23.472H234.291L234.299 23.434C234.575 22.0505 235.348 20.816 236.472 19.9641C237.597 19.1123 238.994 18.7022 240.401 18.8115C241.807 18.9207 243.125 19.5418 244.104 20.5571C245.083 21.5724 245.656 22.9116 245.715 24.321L245.723 27.057H237.413C234.963 27.0563 232.596 27.9488 230.757 29.5675C228.917 31.1861 227.731 33.4198 227.42 35.8502C227.109 38.2807 227.694 40.7411 229.067 42.7709C230.439 44.8007 232.505 46.2605 234.876 46.877L235.024 46.917C235.439 47.0206 235.859 47.0974 236.284 47.147L236.431 47.165C236.936 47.2201 237.443 47.2475 237.951 47.247C239.144 47.27 240.332 47.0977 241.469 46.737C242.973 46.2606 244.343 45.4371 245.47 44.333L245.722 44.088V46.48H251.579V42.584V24.945ZM238.503 31.5H245.642V35.62C245.635 37.1367 245.101 38.6038 244.132 39.7705C243.163 40.9371 241.819 41.7309 240.329 42.016C239.902 42.1141 239.465 42.1644 239.026 42.166C237.982 42.1598 236.959 41.8728 236.064 41.335C235.801 41.1971 235.551 41.0365 235.316 40.855C234.979 40.5923 234.675 40.2901 234.41 39.955L234.349 39.878C233.652 38.977 233.273 37.8709 233.271 36.732C233.272 35.3448 233.824 34.0148 234.805 33.0339C235.786 32.053 237.116 31.5013 238.503 31.5Z" fill="#FF6A00"/>
</svg>
