<svg width="393" height="68" viewBox="0 0 393 68" fill="none" xmlns="http://www.w3.org/2000/svg">
<path d="M230.691 50.4925H225.844V1.74483H242.186C255.532 1.74483 260.1 8.75567 260.1 16.3632C260.1 23.9707 255.515 30.9815 242.186 30.9815H230.707L230.691 50.4925ZM230.691 26.8943H242.809C244.4 27.1108 246.024 26.9917 247.557 26.5463C249.089 26.1009 250.489 25.3409 251.649 24.325C252.808 23.3091 253.696 22.0644 254.245 20.6866C254.793 19.3088 254.987 17.8348 254.811 16.3781C254.989 14.9216 254.797 13.4474 254.251 12.069C253.705 10.6906 252.819 9.44478 251.661 8.42745C250.503 7.41013 249.104 6.64844 247.572 6.20105C246.04 5.75367 244.416 5.63252 242.825 5.84692H230.691V26.8943ZM277.867 21.3752C274.225 21.3517 270.607 21.907 267.174 23.016V19.1078C270.584 17.9074 274.213 17.31 277.867 17.3477C288.577 17.3477 291.36 21.7779 291.36 28.2667V50.4925H288.577L287.496 47.897C284.365 49.9679 280.606 51.1039 276.737 51.1488C275.126 51.3767 273.478 51.2707 271.917 50.8388C270.356 50.4069 268.923 49.6601 267.722 48.654C266.522 47.6479 265.586 46.4083 264.983 45.0274C264.381 43.6464 264.128 42.1596 264.243 40.6773C264.243 35.1582 267.6 31.0561 276.95 30.534L286.366 30.0119V28.1921C286.366 23.4486 284.516 21.3752 277.867 21.3752ZM276.59 34.0543C271.514 34.5018 269.303 36.9183 269.303 40.6922C269.303 43.6159 270.089 47.1213 276.869 47.1213C280.245 47.1193 283.546 46.217 286.366 44.5258V33.219L276.59 34.0543ZM307.048 41.4082C306.287 42.024 305.803 42.8739 305.688 43.7949C305.688 45.4357 306.556 46.1517 308.407 46.3307L320.524 47.6434C327.238 48.2998 330.317 50.7013 330.317 56.3547C330.317 64.2904 321.605 67.3931 311.764 67.3931C301.775 67.3931 295.782 64.7379 295.782 57.5928C295.826 55.6317 296.567 53.7365 297.892 52.1904C299.217 50.6444 301.056 49.5307 303.134 49.0158V48.9412C302.375 48.4718 301.764 47.8298 301.362 47.0787C300.96 46.3277 300.78 45.4938 300.841 44.6601C300.9 43.783 301.175 42.9293 301.645 42.1623C302.116 41.3953 302.77 40.7348 303.56 40.2298C301.602 39.1256 300.027 37.5399 299.016 35.6555C298.005 33.7711 297.599 31.6648 297.845 29.5793C297.845 22.8817 300.989 17.3477 311.764 17.3477C313.692 17.3402 315.613 17.5608 317.479 18.004H329.596V20.4652L323.619 22.0315C325.099 24.3053 325.816 26.9238 325.682 29.5644C325.682 36.262 322.538 41.7961 311.764 41.7961C310.181 41.8108 308.6 41.6759 307.048 41.3933V41.4082ZM309.127 50.1792C304.411 51.1488 300.416 53.1626 300.416 57.3392C300.416 62.1424 304.411 63.4998 311.764 63.4998C318.887 63.4998 325.601 61.8739 325.601 56.3398C325.601 53.0432 323.881 51.7306 319.542 51.2682L309.127 50.1792ZM321.032 29.5793C321.032 25.2833 320.115 21.3155 311.764 21.3155C303.412 21.3155 302.479 25.2833 302.479 29.5793C302.479 33.8753 303.412 37.8283 311.764 37.8283C320.115 37.8283 321.032 33.8604 321.032 29.5644V29.5793ZM347.838 17.3477C359.955 17.3477 361.396 24.8955 361.396 34.2482V36.3366H337.849C338.144 41.99 339.781 47.1213 347.838 47.1213C351.862 47.3147 355.883 46.6932 359.611 45.3015V49.1947C355.879 50.5872 351.869 51.2529 347.838 51.1488C335.786 51.1488 332.855 43.6159 332.855 34.2482C332.855 24.8806 335.786 17.3477 347.838 17.3477ZM337.849 32.6223H356.402C356.402 26.8496 356.042 21.3901 347.838 21.3901C339.552 21.3901 338.062 26.7601 337.849 32.6223ZM380.44 31.8467C390.576 32.6969 393 35.8145 393 41.1397C393 46.1517 389.512 51.1488 378.656 51.1488C375.042 51.1076 371.458 50.5592 368.028 49.5229V45.6297C371.477 46.6865 375.1 47.1911 378.737 47.1213C386.155 47.1213 388.153 44.2573 388.153 41.1994C388.153 38.2161 387.154 36.1277 380.096 35.6206C369.747 34.7703 367.602 31.4439 367.602 26.9689C367.602 22.3447 370.877 17.3477 380.948 17.3477C384.456 17.2734 387.945 17.831 391.215 18.9885V22.8668C387.896 21.812 384.397 21.3068 380.883 21.3752C373.809 21.3752 372.318 23.7917 372.318 26.9838C372.318 29.818 373.596 31.3097 380.44 31.8467ZM40.0533 22.0166H22.5975C22.3804 22.0166 22.1721 22.0952 22.0186 22.235C21.865 22.3749 21.7788 22.5646 21.7788 22.7624V30.5489C21.7788 30.7467 21.865 30.9364 22.0186 31.0763C22.1721 31.2162 22.3804 31.2947 22.5975 31.2947H29.4095V40.9757C27.5274 41.3779 25.5928 41.5386 23.6619 41.453C18.6675 41.453 11.6917 39.7823 11.6917 25.8203C11.6917 11.8583 18.9459 10.0087 25.7743 10.0087C29.192 9.90617 32.601 10.3816 35.8285 11.4108C35.9488 11.4332 36.0732 11.4307 36.1923 11.4034C36.3114 11.3761 36.4222 11.3247 36.5166 11.2531C36.6109 11.1814 36.6864 11.0914 36.7373 10.9896C36.7883 10.8878 36.8135 10.7769 36.811 10.665L38.776 3.14699C38.7774 3.03308 38.7483 2.92058 38.6913 2.81922C38.6342 2.71785 38.5509 2.63068 38.4485 2.56525C33.8567 0.53614 28.7447 -0.314758 23.6619 0.104C11.9538 0.104 0 4.60884 0 26.3573C0 48.1058 13.7059 51.3427 25.2503 51.3427C30.6553 51.4555 35.9835 50.1619 40.61 47.6136C40.7023 47.5466 40.7747 47.4597 40.8204 47.3606C40.8662 47.2616 40.884 47.1537 40.872 47.0468V22.7624C40.872 22.5646 40.7857 22.3749 40.6322 22.235C40.4786 22.0952 40.2704 22.0166 40.0533 22.0166ZM130.853 2.71442C130.853 2.51661 130.766 2.3269 130.613 2.18703C130.459 2.04716 130.251 1.96858 130.034 1.96858H120.193C119.975 1.96858 119.767 2.04716 119.614 2.18703C119.46 2.3269 119.374 2.51661 119.374 2.71442V20.0327H104.047V2.71442C104.047 2.61647 104.026 2.51948 103.984 2.429C103.943 2.33851 103.883 2.25629 103.807 2.18703C103.731 2.11777 103.641 2.06284 103.541 2.02536C103.442 1.98788 103.336 1.96858 103.228 1.96858H93.403C93.2955 1.96858 93.189 1.98788 93.0897 2.02536C92.9903 2.06284 92.9001 2.11777 92.8241 2.18703C92.748 2.25629 92.6877 2.33851 92.6466 2.429C92.6054 2.51948 92.5842 2.61647 92.5842 2.71442V49.6273C92.5842 49.8251 92.6705 50.0148 92.8241 50.1547C92.9776 50.2946 93.1859 50.3732 93.403 50.3732H103.228C103.445 50.3732 103.653 50.2946 103.807 50.1547C103.96 50.0148 104.047 49.8251 104.047 49.6273V29.5644H119.39L119.357 49.6273C119.357 49.8251 119.444 50.0148 119.597 50.1547C119.751 50.2946 119.959 50.3732 120.176 50.3732H130.05C130.267 50.3732 130.476 50.2946 130.629 50.1547C130.783 50.0148 130.869 49.8251 130.869 49.6273L130.853 2.71442ZM58.9827 8.86008C58.9698 7.71737 58.5858 6.60372 57.8791 5.65951C57.1725 4.7153 56.1748 3.98279 55.0118 3.55431C53.8488 3.12584 52.5726 3.02058 51.3441 3.25181C50.1155 3.48303 48.9896 4.04038 48.1082 4.85361C47.2269 5.66685 46.6295 6.69955 46.3915 7.82157C46.1535 8.94358 46.2854 10.1047 46.7706 11.1585C47.2559 12.2123 48.0728 13.1117 49.1183 13.7432C50.1638 14.3748 51.3911 14.7103 52.6456 14.7074C54.3365 14.6956 55.9533 14.0734 57.1412 12.9772C58.3292 11.881 58.9915 10.4004 58.9827 8.86008ZM58.295 39.7077V18.0637C58.295 17.9657 58.2738 17.8687 58.2327 17.7782C58.1915 17.6878 58.1312 17.6055 58.0552 17.5363C57.9792 17.467 57.8889 17.4121 57.7896 17.3746C57.6902 17.3371 57.5838 17.3178 57.4762 17.3178H47.6513C47.4239 17.3397 47.2133 17.4369 47.0594 17.5909C46.9054 17.7448 46.8189 17.9449 46.8161 18.1532V49.1798C46.8161 50.0748 47.4384 50.3582 48.2408 50.3582H57.0833C58.0658 50.3582 58.295 49.9107 58.295 49.1649V39.7077ZM169.056 17.3775H159.28C159.062 17.3775 158.854 17.4561 158.701 17.5959C158.547 17.7358 158.461 17.9255 158.461 18.1233V41.1248C156.674 42.1906 154.587 42.7607 152.451 42.7657C148.931 42.7657 147.997 41.3187 147.997 38.1862V18.1382C147.997 17.9404 147.911 17.7507 147.757 17.6109C147.604 17.471 147.396 17.3924 147.178 17.3924H137.288C137.18 17.3924 137.074 17.4117 136.975 17.4492C136.875 17.4867 136.785 17.5416 136.709 17.6109C136.633 17.6801 136.573 17.7623 136.532 17.8528C136.49 17.9433 136.469 18.0403 136.469 18.1382V39.7077C136.469 49.0456 142.168 51.3278 150.028 51.3278C154.153 51.2231 158.17 50.1047 161.654 48.0909C161.738 48.7325 161.859 49.3698 162.014 50.0003C162.085 50.1187 162.189 50.2182 162.316 50.2888C162.442 50.3595 162.587 50.3988 162.735 50.403L169.039 50.3732C169.256 50.3732 169.465 50.2946 169.618 50.1547C169.772 50.0148 169.858 49.8251 169.858 49.6273V18.1233C169.858 17.9255 169.772 17.7358 169.618 17.5959C169.465 17.4561 169.256 17.3775 169.039 17.3775H169.056ZM196.271 16.3333C193.002 16.3101 189.785 17.0825 186.953 18.5708V2.71442C186.953 2.61647 186.932 2.51948 186.891 2.429C186.85 2.33851 186.79 2.25629 186.714 2.18703C186.638 2.11777 186.547 2.06284 186.448 2.02536C186.349 1.98788 186.242 1.96858 186.135 1.96858H176.277C176.169 1.96858 176.063 1.98788 175.964 2.02536C175.864 2.06284 175.774 2.11777 175.698 2.18703C175.622 2.25629 175.562 2.33851 175.52 2.429C175.479 2.51948 175.458 2.61647 175.458 2.71442V49.6273C175.458 49.8251 175.544 50.0148 175.698 50.1547C175.851 50.2946 176.06 50.3732 176.277 50.3732H183.122C183.271 50.3721 183.416 50.334 183.543 50.263C183.67 50.1921 183.774 50.0909 183.842 49.9704C184.038 49.2648 184.174 48.5467 184.251 47.8224C187.562 50.2144 191.704 51.4474 195.927 51.298C204.9 51.298 210.042 47.1512 210.042 32.682C210.042 18.2128 201.822 16.3333 196.271 16.3333ZM192.423 42.7508C190.42 42.7039 188.464 42.1904 186.741 41.2591V26.4021C188.291 25.5941 190.008 25.0863 191.784 24.9104C195.305 24.627 198.694 25.5966 198.694 33.2339C198.694 41.2889 197.155 42.8701 192.423 42.7508ZM86.3945 17.3029H79.0258L78.993 8.42749C78.993 8.08441 78.8129 7.92033 78.3871 7.92033H68.3165C67.9235 7.92033 67.727 8.0695 67.727 8.41258V17.5863L62.3232 18.7797C62.1562 18.8275 62.0105 18.9229 61.9073 19.0517C61.8042 19.1806 61.7491 19.3362 61.7501 19.4957V25.2684C61.7501 25.3664 61.7713 25.4633 61.8124 25.5538C61.8536 25.6443 61.9139 25.7265 61.9899 25.7958C62.066 25.865 62.1562 25.92 62.2556 25.9575C62.3549 25.9949 62.4614 26.0142 62.5689 26.0142H67.727V39.8867C67.727 50.2091 75.6525 51.2234 81.0235 51.2234C83.0069 51.1611 84.9726 50.8601 86.8694 50.3284C87.0097 50.2741 87.1287 50.1824 87.2106 50.0652C87.2925 49.948 87.3334 49.8109 87.3279 49.6721L87.3443 43.3176C87.3443 43.2196 87.3231 43.1227 87.2819 43.0322C87.2408 42.9417 87.1805 42.8595 87.1044 42.7902C87.0284 42.7209 86.9382 42.666 86.8388 42.6285C86.7395 42.591 86.633 42.5718 86.5255 42.5718C86.0997 42.5718 84.9862 42.7209 83.8564 42.7209C80.2375 42.7209 79.0094 41.1994 79.0094 39.2006V26.0142H86.3945C86.6116 26.0142 86.8199 25.9357 86.9734 25.7958C87.127 25.6559 87.2133 25.4662 87.2133 25.2684V18.0488C87.2133 17.9508 87.1921 17.8538 87.1509 17.7633C87.1098 17.6728 87.0495 17.5906 86.9734 17.5214C86.8974 17.4521 86.8072 17.3972 86.7078 17.3597C86.6085 17.3222 86.502 17.3029 86.3945 17.3029Z" fill="black"/>
</svg>
