<svg width="338" height="118" viewBox="0 0 338 118" fill="none" xmlns="http://www.w3.org/2000/svg">
<path d="M7.05771 5.08164L71.9652 0.26779C79.9379 -0.419342 81.9868 0.043981 86.9995 3.70345L107.719 18.361C111.137 20.8818 112.274 21.5689 112.274 24.3135V104.7C112.274 109.738 110.452 112.718 104.075 113.173L28.7001 117.756C23.9141 117.983 21.6345 117.296 19.1282 114.088L3.87099 94.1654C1.13393 90.498 0 87.7534 0 84.5455V13.0916C0 8.97277 1.8221 5.53711 7.05771 5.08164Z" fill="white"/>
<path d="M71.9652 0.26779L7.05771 5.08164C1.8221 5.53711 0 8.97277 0 13.0916V84.5455C0 87.7534 1.13393 90.498 3.87099 94.1654L19.1282 114.088C21.6345 117.296 23.9141 117.983 28.7001 117.756L104.075 113.173C110.448 112.718 112.274 109.738 112.274 104.7V24.3135C112.274 21.7102 111.25 20.9603 108.235 18.7379C108.062 18.6124 107.888 18.4868 107.715 18.361L86.9995 3.70345C81.9868 0.043981 79.9379 -0.419342 71.9652 0.26779ZM30.4049 22.9981C24.2504 23.4143 22.8545 23.5086 19.3589 20.654L10.4712 13.555C9.56799 12.6362 10.0216 11.4896 12.2972 11.2619L74.6945 6.68364C79.934 6.22424 82.6632 8.0579 84.7121 9.6599L95.414 17.4461C95.8715 17.6778 97.0094 19.0481 95.6408 19.0481L31.2025 22.9431L30.4049 22.9981ZM23.2298 104.013V35.7709C23.2298 32.7907 24.1409 31.4165 26.8701 31.1848L100.88 26.8343C103.391 26.6065 104.525 28.2085 104.525 31.1848V98.9714C104.525 101.952 104.067 104.472 99.9693 104.7L29.1458 108.823C25.048 109.051 23.2298 107.68 23.2298 104.013ZM93.1423 39.4304C93.5958 41.4918 93.1423 43.5532 91.0895 43.7888L87.676 44.468V94.8525C84.7121 96.4545 81.9829 97.3694 79.7033 97.3694C76.0591 97.3694 75.148 96.2228 72.4188 92.7911L50.0961 57.5236V91.6446L57.1577 93.2505C57.1577 93.2505 57.1577 97.3733 51.4607 97.3733L35.7539 98.2882C35.2964 97.3694 35.7539 95.0802 37.3453 94.6248L41.447 93.4822V48.367L35.7539 47.9037C35.2964 45.8423 36.4342 42.8661 39.6249 42.6344L56.4774 41.4957L79.7033 77.2187V45.6146L73.7834 44.9314C73.3259 42.4067 75.148 40.573 77.4237 40.3492L93.1423 39.4304Z" fill="black"/>
<path d="M162.011 83.4422V52.3838H162.546L184.849 83.4422H191.872V37.8009H184.064V68.8278H183.528L161.225 37.8009H154.175V83.4382H162.015L162.011 83.4422ZM213.941 84.1411C224.244 84.1411 230.512 77.3718 230.512 66.1421C230.512 54.9439 224.212 48.1432 213.941 48.1432C203.704 48.1432 197.373 54.9753 197.373 66.1421C197.373 77.3718 203.61 84.1411 213.941 84.1411ZM213.941 77.5603C208.494 77.5603 205.377 73.3865 205.377 66.1421C205.377 58.9292 208.494 54.724 213.941 54.724C219.36 54.724 222.476 58.9292 222.476 66.1421C222.476 73.3865 219.391 77.5603 213.941 77.5603ZM237.647 40.3649V49.062H232.201V55.3247H237.647V74.2071C237.647 80.9135 240.799 83.6032 248.705 83.6032C250.214 83.6032 251.665 83.4461 252.799 83.2223V77.0852C251.853 77.1794 251.255 77.2423 250.152 77.2423C246.879 77.2423 245.429 75.7267 245.429 72.3106V55.3247H252.799V49.062H245.429V40.361H237.647V40.3649ZM257.479 83.4422H265.26V48.8382H257.479V83.4422ZM261.354 43.1173C263.935 43.1173 266.015 41.0245 266.015 38.4016C266.015 35.7748 263.939 33.6545 261.354 33.6545C258.805 33.6545 256.693 35.7748 256.693 38.4016C256.693 41.0245 258.805 43.1134 261.354 43.1134V43.1173ZM286.606 84.1411C296.905 84.1411 303.173 77.3718 303.173 66.1421C303.173 54.9439 296.874 48.1432 286.606 48.1432C276.365 48.1432 270.035 54.9753 270.035 66.1421C270.035 77.3718 276.271 84.1411 286.606 84.1411ZM286.606 77.5603C281.155 77.5603 278.035 73.3865 278.035 66.1421C278.035 58.9292 281.155 54.724 286.606 54.724C292.021 54.724 295.141 58.9292 295.141 66.1421C295.141 73.3865 292.052 77.5603 286.606 77.5603ZM307.822 83.4422H315.634V63.2955C315.634 58.2028 318.567 54.9753 323.224 54.9753C327.982 54.9753 330.184 57.6335 330.184 62.9146V83.4422H338V61.0495C338 52.7922 333.808 48.1432 326.125 48.1432C320.987 48.1432 317.523 50.5148 315.884 54.3745H315.349V48.8382H307.822V83.4422Z" fill="black"/>
</svg>
